<svg width="394" height="114" viewBox="0 0 394 114" fill="none" xmlns="http://www.w3.org/2000/svg">
<rect x="0.812012" y="0.784912" width="190.692" height="111.815" rx="20" fill="#F4F4F4"/>
<rect x="177.728" y="62.6406" width="11.6452" height="38.5405" rx="5.82262" fill="#FFE1E8"/>
<rect x="177.728" y="79.6997" width="11.6452" height="21.4816" rx="5.82262" fill="#FF358A"/>
<rect x="153.883" y="62.6406" width="11.6452" height="38.5405" rx="5.82262" fill="#FFE1E8"/>
<rect x="153.883" y="88.5447" width="11.6452" height="12.6362" rx="5.82262" fill="#FF358A"/>
<rect x="130.038" y="62.6406" width="11.6452" height="38.5405" rx="5.82262" fill="#FFE1E8"/>
<rect x="130.038" y="71.4863" width="11.6452" height="29.6952" rx="5.82262" fill="#FF358A"/>
<rect x="106.193" y="62.6406" width="11.6452" height="38.5405" rx="5.82262" fill="#FFE1E8"/>
<rect x="106.193" y="75.2773" width="11.6452" height="25.9043" rx="5.82262" fill="#FF358A"/>
<rect x="82.3477" y="62.6406" width="11.6452" height="38.5405" rx="5.82262" fill="#FFE1E8"/>
<rect x="82.3477" y="79.6997" width="11.6452" height="21.4816" rx="5.82262" fill="#FF358A"/>
<rect x="58.5029" y="62.6406" width="11.6452" height="38.5405" rx="5.82262" fill="#FFE1E8"/>
<rect x="58.5029" y="69.5906" width="11.6452" height="31.5906" rx="5.82262" fill="#FF358A"/>
<rect x="34.6577" y="62.6406" width="11.6452" height="38.5405" rx="5.82262" fill="#FFE1E8"/>
<rect x="34.6577" y="85.3857" width="11.6452" height="15.7953" rx="5.82262" fill="#FF358A"/>
<g clip-path="url(#clip0_1_163)">
<path d="M185.726 27.2973L185.039 27.4815L184.307 24.7596L182.136 28.5207L181.518 28.1638L183.689 24.4027L180.967 25.1347L180.782 24.4425L184.681 23.3975L185.726 27.2973Z" fill="#05A402"/>
</g>
<rect x="202.772" y="1.65161" width="190.692" height="111.815" rx="20" fill="#F4F4F4"/>
<rect x="365.989" y="63.1931" width="11.874" height="38.5405" rx="5.937" fill="#E0DBFF"/>
<rect x="365.989" y="80.252" width="11.874" height="21.4816" rx="5.937" fill="#5236FF"/>
<rect x="341.675" y="63.1931" width="11.874" height="38.5405" rx="5.937" fill="#E0DBFF"/>
<rect x="341.675" y="89.0972" width="11.874" height="12.6362" rx="5.937" fill="#5236FF"/>
<rect x="317.362" y="63.1931" width="11.874" height="38.5405" rx="5.937" fill="#E0DBFF"/>
<rect x="317.362" y="72.0388" width="11.874" height="29.6952" rx="5.937" fill="#5236FF"/>
<rect x="293.048" y="63.1931" width="11.874" height="38.5405" rx="5.937" fill="#E0DBFF"/>
<rect x="293.048" y="75.8296" width="11.874" height="25.9043" rx="5.937" fill="#5236FF"/>
<rect x="268.735" y="63.1931" width="11.874" height="38.5405" rx="5.937" fill="#E0DBFF"/>
<rect x="268.735" y="80.252" width="11.874" height="21.4816" rx="5.937" fill="#5236FF"/>
<rect x="244.421" y="63.1931" width="11.874" height="38.5405" rx="5.937" fill="#E0DBFF"/>
<rect x="244.421" y="70.1431" width="11.874" height="31.5906" rx="5.937" fill="#5236FF"/>
<rect x="220.108" y="63.1931" width="11.874" height="38.5405" rx="5.937" fill="#E0DBFF"/>
<rect x="220.108" y="85.938" width="11.874" height="15.7953" rx="5.937" fill="#5236FF"/>
<g clip-path="url(#clip1_1_163)">
<path d="M376.816 26.4306L376.129 26.6148L375.397 23.8929L373.225 27.654L372.607 27.2971L374.779 23.536L372.057 24.268L371.871 23.5758L375.771 22.5308L376.816 26.4306Z" fill="#05A402"/>
</g>
<rect x="30.7515" y="31.989" width="52.007" height="10.4014" rx="5.2007" fill="#D5D5D5"/>
<rect x="220.108" y="33.7224" width="52.007" height="10.4014" rx="5.2007" fill="#D5D5D5"/>
<rect x="30.7515" y="22.4543" width="36.4049" height="6.93427" rx="3.46714" fill="#D5D5D5"/>
<rect x="220.108" y="24.188" width="36.4049" height="6.06749" rx="3.03374" fill="#D5D5D5"/>
<rect x="152.968" y="35.4561" width="36.4049" height="8.66784" rx="4.33392" fill="#FFB422"/>
<rect x="342.325" y="36.323" width="36.4049" height="8.66784" rx="4.33392" fill="#FFB422"/>
<defs>
<clipPath id="clip0_1_163">
<rect width="8.56456" height="8.56456" rx="4.28228" transform="matrix(1 0 0 -1 178.972 30.1521)" fill="white"/>
</clipPath>
<clipPath id="clip1_1_163">
<rect width="8.56456" height="8.56456" rx="4.28228" transform="matrix(1 0 0 -1 370.062 29.2854)" fill="white"/>
</clipPath>
</defs>
</svg>
