<svg width="371" height="204" viewBox="0 0 371 204" fill="none" xmlns="http://www.w3.org/2000/svg">
<rect x="0.964844" y="0.568848" width="369.544" height="202.564" fill="#F1F1F1"/>
<rect x="10.0146" y="30.1321" width="351.444" height="168.621" fill="white"/>
<rect x="38.6733" y="52.0312" width="291.11" height="122.633" rx="8" fill="#F1F1F1"/>
<rect x="337.326" y="13.708" width="22.6251" height="4.37976" rx="2.18988" fill="#C4C4C4"/>
<rect x="171.407" y="130.866" width="64.8587" height="4.37976" rx="2.18988" fill="white"/>
<rect x="55.2646" y="72.8347" width="64.8587" height="4.37976" rx="2.18988" fill="white"/>
<rect x="249.842" y="130.866" width="64.8587" height="4.37976" rx="2.18988" fill="white"/>
<rect x="171.407" y="138.531" width="64.8587" height="4.37976" rx="2.18988" fill="white"/>
<rect x="55.2646" y="80.499" width="64.8587" height="4.37976" rx="2.18988" fill="white"/>
<rect x="249.842" y="138.531" width="64.8587" height="4.37976" rx="2.18988" fill="white"/>
<rect x="171.407" y="146.196" width="36.2002" height="4.37976" rx="2.18988" fill="white"/>
<rect x="55.2646" y="88.1643" width="36.2002" height="4.37976" rx="2.18988" fill="white"/>
<rect x="249.842" y="146.196" width="36.2002" height="4.37976" rx="2.18988" fill="white"/>
<ellipse cx="13.7855" cy="15.3504" rx="3.77086" ry="2.73735" fill="#C4C4C4"/>
<ellipse cx="24.3446" cy="15.3504" rx="3.77086" ry="2.73735" fill="#C4C4C4"/>
<ellipse cx="34.9022" cy="15.3504" rx="3.77086" ry="2.73735" fill="#C4C4C4"/>
</svg>
