<svg width="10" height="10" viewBox="0 0 10 10" fill="none" xmlns="http://www.w3.org/2000/svg">
<path opacity="0.4" d="M4.74868 7.20557H1.81836" stroke="#5236FF" stroke-width="2" stroke-linecap="round" stroke-linejoin="round"/>
<path fill-rule="evenodd" clip-rule="evenodd" d="M8.51643 7.20523C8.51643 7.78323 8.04788 8.25178 7.46988 8.25178C6.89189 8.25178 6.42334 7.78323 6.42334 7.20523C6.42334 6.62681 6.89189 6.15869 7.46988 6.15869C8.04788 6.15869 8.51643 6.62681 8.51643 7.20523Z" stroke="#5236FF" stroke-width="2" stroke-linecap="round" stroke-linejoin="round"/>
<path opacity="0.4" d="M5.58594 2.60059H8.51626" stroke="#5236FF" stroke-width="2" stroke-linecap="round" stroke-linejoin="round"/>
<path fill-rule="evenodd" clip-rule="evenodd" d="M1.81836 2.60025C1.81836 3.17867 2.28691 3.6468 2.8649 3.6468C3.4429 3.6468 3.91145 3.17867 3.91145 2.60025C3.91145 2.02226 3.4429 1.55371 2.8649 1.55371C2.28691 1.55371 1.81836 2.02226 1.81836 2.60025Z" stroke="#5236FF" stroke-width="2" stroke-linecap="round" stroke-linejoin="round"/>
</svg>
