<svg width="2129" height="813" viewBox="0 0 2129 813" fill="none" xmlns="http://www.w3.org/2000/svg">
<path d="M91.0425 100.203C56.2079 61.6119 83.5934 0 135.581 0H2129V813H885.576C789.364 813 697.656 772.237 633.189 700.818L91.0425 100.203Z" fill="#F9F8FF"/>
<path d="M91.0425 100.203C56.2079 61.6119 83.5934 0 135.581 0H2129V813H885.576C789.364 813 697.656 772.237 633.189 700.818L91.0425 100.203Z" fill="url(#paint0_linear_1_5)"/>
<mask id="mask0_1_5" style="mask-type:alpha" maskUnits="userSpaceOnUse" x="75" y="0" width="2055" height="813">
<path d="M91.0425 100.203C56.2079 61.6118 83.5934 0 135.581 0H2129V813H885.576C789.364 813 697.656 772.237 633.189 700.818L91.0425 100.203Z" fill="#F9F8FF"/>
</mask>
<g mask="url(#mask0_1_5)">
<ellipse cx="518.672" cy="437.606" rx="518.672" ry="437.606" transform="matrix(0.952541 -0.30441 0.458312 0.888792 561.58 -110.382)" fill="url(#paint1_linear_1_5)" fill-opacity="0.44" style="mix-blend-mode:multiply"/>
<ellipse cx="384.716" cy="437.227" rx="384.716" ry="437.227" transform="matrix(0.317788 -0.948162 0.976337 0.216253 1171.96 1215.14)" fill="url(#paint2_linear_1_5)" fill-opacity="0.42" style="mix-blend-mode:multiply"/>
</g>
<defs>
<linearGradient id="paint0_linear_1_5" x1="448.826" y1="-4.03397e-05" x2="1835.31" y2="1163.1" gradientUnits="userSpaceOnUse">
<stop stop-color="#684FFF"/>
<stop offset="1" stop-color="#B871FE"/>
</linearGradient>
<linearGradient id="paint1_linear_1_5" x1="518.672" y1="0" x2="518.672" y2="875.212" gradientUnits="userSpaceOnUse">
<stop stop-color="#684FFF"/>
<stop offset="1" stop-color="#FFF8F0" stop-opacity="0"/>
</linearGradient>
<linearGradient id="paint2_linear_1_5" x1="384.716" y1="0" x2="384.716" y2="874.454" gradientUnits="userSpaceOnUse">
<stop stop-color="#684FFF"/>
<stop offset="1" stop-color="#FFF8F0" stop-opacity="0"/>
</linearGradient>
</defs>
</svg>
