<svg width="33" height="129" viewBox="0 0 33 129" fill="none" xmlns="http://www.w3.org/2000/svg">
<rect x="0.382812" y="0.544922" width="31.7938" height="127.705" rx="15.8969" fill="url(#paint0_linear_1_141)"/>
<path d="M14.2939 79.3005C15.0587 77.9757 16.9708 77.9757 17.7356 79.3005C18.5005 80.6252 17.5444 82.2812 16.0147 82.2812C14.4851 82.2812 13.529 80.6252 14.2939 79.3005Z" fill="white"/>
<path d="M14.2939 62.3439C15.0587 61.0192 16.9708 61.0192 17.7356 62.3439C18.5005 63.6687 17.5444 65.3246 16.0147 65.3246C14.4851 65.3246 13.529 63.6687 14.2939 62.3439Z" fill="white"/>
<path d="M14.2939 45.3879C15.0587 44.0632 16.9708 44.0632 17.7356 45.3879C18.5005 46.7126 17.5444 48.3686 16.0147 48.3686C14.4851 48.3686 13.529 46.7126 14.2939 45.3879Z" fill="white"/>
<path d="M14.2939 28.4309C15.0587 27.1061 16.9708 27.1061 17.7356 28.4309C18.5005 29.7556 17.5444 31.4115 16.0147 31.4115C14.4851 31.4115 13.529 29.7556 14.2939 28.4309Z" fill="white"/>
<path d="M14.2939 12.0041C15.0587 10.6794 16.9708 10.6794 17.7356 12.0041C18.5005 13.3288 17.5444 14.9848 16.0147 14.9848C14.4851 14.9848 13.529 13.3288 14.2939 12.0041Z" fill="white"/>
<circle cx="16.2798" cy="89.5679" r="2.5" fill="white" stroke="#FF358A" stroke-width="4.53813"/>
<defs>
<linearGradient id="paint0_linear_1_141" x1="16.2797" y1="0.544922" x2="16.2797" y2="128.25" gradientUnits="userSpaceOnUse">
<stop stop-color="#6A50FF"/>
<stop offset="1" stop-color="#C4C4C4" stop-opacity="0"/>
</linearGradient>
</defs>
</svg>
