<svg width="574" height="259" viewBox="0 0 574 259" fill="none" xmlns="http://www.w3.org/2000/svg">
<rect x="43.7119" y="1.75684" width="364.402" height="182.528" stroke="#C6C6C6" stroke-width="2" stroke-linejoin="round" stroke-dasharray="3 3"/>
<rect x="81.6343" y="23.7083" width="378.907" height="195.709" fill="#F1F1F1"/>
<rect x="90.9136" y="52.271" width="360.348" height="162.914" fill="white"/>
<rect x="120.299" y="73.429" width="298.486" height="118.483" rx="8" fill="#F1F1F1"/>
<rect x="426.518" y="36.4028" width="23.1984" height="4.23154" rx="2.11577" fill="#C4C4C4"/>
<ellipse cx="94.78" cy="37.9897" rx="3.8664" ry="2.64471" fill="#C4C4C4"/>
<ellipse cx="105.606" cy="37.9897" rx="3.8664" ry="2.64471" fill="#C4C4C4"/>
<ellipse cx="116.432" cy="37.9897" rx="3.8664" ry="2.64471" fill="#C4C4C4"/>
<rect x="337.048" y="142.137" width="20.132" height="12.8527" fill="#FF4E42"/>
<rect x="186.729" y="103.579" width="21.4741" height="12.8527" fill="#5236FF"/>
<rect x="365.232" y="180.695" width="22.8162" height="9.18051" fill="#FFB422"/>
<line x1="149.24" y1="89.8076" x2="149.24" y2="178.859" stroke="#CFCFCF"/>
<line x1="209.637" y1="89.8076" x2="209.637" y2="178.859" stroke="#CFCFCF"/>
<line x1="268.69" y1="89.8076" x2="268.69" y2="178.859" stroke="#CFCFCF"/>
<line x1="329.086" y1="89.8076" x2="329.086" y2="178.859" stroke="#CFCFCF"/>
<line x1="388.14" y1="89.8076" x2="388.14" y2="178.859" stroke="#CFCFCF"/>
<line x1="148.74" y1="104.915" x2="387.639" y2="104.915" stroke="#CFCFCF"/>
<line x1="148.74" y1="144.391" x2="387.639" y2="144.391" stroke="#CFCFCF"/>
<line x1="178.768" y1="89.8076" x2="178.768" y2="178.859" stroke="#CFCFCF"/>
<line x1="239.163" y1="89.8076" x2="239.163" y2="178.859" stroke="#CFCFCF"/>
<line x1="298.218" y1="89.8076" x2="298.218" y2="178.859" stroke="#CFCFCF"/>
<line x1="358.613" y1="89.8076" x2="358.613" y2="178.859" stroke="#CFCFCF"/>
<line x1="148.74" y1="125.112" x2="387.639" y2="125.112" stroke="#CFCFCF"/>
<line x1="148.74" y1="164.588" x2="387.639" y2="164.588" stroke="#CFCFCF"/>
<g filter="url(#filter0_d_1_416)">
<rect x="16.2783" y="104.122" width="266.675" height="123.525" rx="15" fill="#5236FF"/>
</g>
<g filter="url(#filter1_d_1_416)">
<rect x="374.219" y="54.0037" width="173.135" height="90.887" rx="9" fill="white"/>
</g>
<rect x="388.981" y="67.7744" width="61.738" height="3.6722" rx="1.8361" fill="#F1F1F1"/>
<rect x="388.981" y="74.2007" width="26.8426" height="3.6722" rx="1.8361" fill="#F1F1F1"/>
<rect x="504.406" y="131.12" width="26.8426" height="3.6722" rx="1.8361" fill="#F1F1F1"/>
<path d="M460.114 132.956C452.689 132.956 445.408 131.552 439.076 128.898C432.745 126.244 427.61 122.444 424.239 117.918C420.868 113.393 419.392 108.318 419.974 103.254C420.557 98.1903 423.175 93.3355 427.54 89.2263L442.198 96.5111C439.798 98.7712 438.358 101.441 438.037 104.226C437.717 107.011 438.529 109.803 440.383 112.292C442.237 114.781 445.061 116.871 448.543 118.33C452.026 119.79 456.03 120.563 460.114 120.563L460.114 132.956Z" fill="#FFB422"/>
<path d="M500.625 104.555C500.795 108.259 499.869 111.95 497.903 115.404C495.938 118.858 492.973 122.006 489.187 124.658C485.401 127.309 480.871 129.411 475.87 130.837C470.868 132.263 465.496 132.984 460.077 132.956L460.214 120.562C463.194 120.578 466.149 120.181 468.9 119.397C471.651 118.613 474.142 117.457 476.225 115.998C478.307 114.54 479.937 112.809 481.018 110.909C482.099 109.009 482.609 106.979 482.515 104.942L500.625 104.555Z" fill="#5236FF"/>
<path d="M427.417 89.3616C432.325 84.6814 439.256 81.1717 447.233 79.3264C455.21 77.481 463.832 77.3929 471.886 79.0744C479.94 80.7559 487.021 84.1223 492.132 88.7001C497.243 93.2779 500.127 98.8366 500.378 104.594L482.654 104.956C482.513 101.734 480.899 98.6237 478.039 96.062C475.179 93.5003 471.217 91.6165 466.71 90.6756C462.203 89.7346 457.378 89.7839 452.914 90.8166C448.45 91.8492 444.572 93.8132 441.825 96.4322L427.417 89.3616Z" fill="#FF4E42"/>
<rect x="48.4893" y="143.055" width="107.37" height="6.42636" rx="3.21318" fill="#F1F1F1"/>
<rect x="48.4893" y="154.071" width="46.9746" height="6.42636" rx="3.21318" fill="#F1F1F1"/>
<rect x="212.229" y="144.891" width="52.3431" height="6.42636" rx="3.21318" fill="#3821C6"/>
<rect x="212.229" y="155.907" width="52.3431" height="6.42636" rx="3.21318" fill="#3821C6"/>
<rect x="240.3" y="175.838" width="15.2849" height="40.3273" rx="7.64243" fill="white" fill-opacity="0.24"/>
<rect x="240.3" y="195.753" width="15.2849" height="20.4126" rx="7.64243" fill="#FFB422"/>
<rect x="209.003" y="175.838" width="15.2849" height="40.3273" rx="7.64243" fill="white" fill-opacity="0.24"/>
<rect x="209.003" y="204.216" width="15.2849" height="11.9488" rx="5.97441" fill="#FFB422"/>
<rect x="177.705" y="175.838" width="15.2849" height="40.3273" rx="7.64243" fill="white" fill-opacity="0.24"/>
<rect x="177.705" y="187.787" width="15.2849" height="28.3785" rx="7.64243" fill="#FFB422"/>
<rect x="146.408" y="175.838" width="15.2849" height="40.3273" rx="7.64243" fill="white" fill-opacity="0.24"/>
<rect x="146.408" y="191.272" width="15.2849" height="24.8934" rx="7.64243" fill="#FFB422"/>
<rect x="115.111" y="175.838" width="15.2849" height="40.3273" rx="7.64243" fill="white" fill-opacity="0.24"/>
<rect x="115.111" y="195.753" width="15.2849" height="20.4126" rx="7.64243" fill="#FFB422"/>
<rect x="83.813" y="175.838" width="15.2849" height="40.3273" rx="7.64243" fill="white" fill-opacity="0.24"/>
<rect x="83.813" y="185.794" width="15.2849" height="30.3699" rx="7.64243" fill="#FFB422"/>
<rect x="52.5151" y="175.838" width="15.2849" height="40.3273" rx="7.64243" fill="white" fill-opacity="0.24"/>
<rect x="52.5151" y="201.229" width="15.2849" height="14.936" rx="7.46802" fill="#FFB422"/>
<defs>
<filter id="filter0_d_1_416" x="0.27832" y="93.1223" width="308.675" height="165.525" filterUnits="userSpaceOnUse" color-interpolation-filters="sRGB">
<feFlood flood-opacity="0" result="BackgroundImageFix"/>
<feColorMatrix in="SourceAlpha" type="matrix" values="0 0 0 0 0 0 0 0 0 0 0 0 0 0 0 0 0 0 127 0" result="hardAlpha"/>
<feOffset dx="5" dy="10"/>
<feGaussianBlur stdDeviation="10.5"/>
<feComposite in2="hardAlpha" operator="out"/>
<feColorMatrix type="matrix" values="0 0 0 0 0.700272 0 0 0 0 0.700272 0 0 0 0 0.700272 0 0 0 0.25 0"/>
<feBlend mode="normal" in2="BackgroundImageFix" result="effect1_dropShadow_1_416"/>
<feBlend mode="normal" in="SourceGraphic" in2="effect1_dropShadow_1_416" result="shape"/>
</filter>
<filter id="filter1_d_1_416" x="358.219" y="43.0037" width="215.135" height="132.887" filterUnits="userSpaceOnUse" color-interpolation-filters="sRGB">
<feFlood flood-opacity="0" result="BackgroundImageFix"/>
<feColorMatrix in="SourceAlpha" type="matrix" values="0 0 0 0 0 0 0 0 0 0 0 0 0 0 0 0 0 0 127 0" result="hardAlpha"/>
<feOffset dx="5" dy="10"/>
<feGaussianBlur stdDeviation="10.5"/>
<feComposite in2="hardAlpha" operator="out"/>
<feColorMatrix type="matrix" values="0 0 0 0 0.700272 0 0 0 0 0.700272 0 0 0 0 0.700272 0 0 0 0.25 0"/>
<feBlend mode="normal" in2="BackgroundImageFix" result="effect1_dropShadow_1_416"/>
<feBlend mode="normal" in="SourceGraphic" in2="effect1_dropShadow_1_416" result="shape"/>
</filter>
</defs>
</svg>
