<svg width="98" height="97" viewBox="0 0 98 97" fill="none" xmlns="http://www.w3.org/2000/svg">
<rect x="0.462402" width="97" height="97" rx="20" fill="#DBDCFF"/>
<circle cx="48.5616" cy="47.2974" r="25.6529" fill="#5236FF"/>
<mask id="mask0_1_518" style="mask-type:alpha" maskUnits="userSpaceOnUse" x="22" y="21" width="53" height="52">
<circle cx="48.5616" cy="47.2974" r="25.6529" fill="url(#paint0_linear_1_518)"/>
</mask>
<g mask="url(#mask0_1_518)">
</g>
<path d="M68.8582 78.7134C68.8822 75.4312 68.3706 72.1772 67.3527 69.1372C66.3347 66.0972 64.8303 63.3308 62.9253 60.9958C61.0203 58.6609 58.7521 56.8031 56.2501 55.5287C53.7481 54.2543 51.0614 53.5881 48.3433 53.5682C45.6252 53.5483 42.929 54.175 40.4086 55.4127C37.8882 56.6504 35.593 58.4747 33.6541 60.7815C31.7151 63.0883 30.1703 65.8324 29.108 68.8572C28.0456 71.8819 27.4864 75.1281 27.4624 78.4103L68.8582 78.7134Z" fill="#E1E3F9"/>
<path d="M58.181 40.8842C58.181 46.1971 53.8741 50.5041 48.5612 50.5041C43.2483 50.5041 38.9413 46.1971 38.9413 40.8842C38.9413 35.5714 43.2483 31.2644 48.5612 31.2644C53.8741 31.2644 58.181 35.5714 58.181 40.8842Z" fill="#E1E3F9"/>
<defs>
<linearGradient id="paint0_linear_1_518" x1="26.917" y1="26.8553" x2="72.6112" y2="74.1528" gradientUnits="userSpaceOnUse">
<stop stop-color="#5860C2"/>
<stop offset="1" stop-color="#292F8D"/>
</linearGradient>
</defs>
</svg>
