<svg width="97" height="103" viewBox="0 0 97 103" fill="none" xmlns="http://www.w3.org/2000/svg">
<rect x="0.512695" width="96" height="103" rx="20" fill="#5236FF"/>
<mask id="mask0_1_481" style="mask-type:alpha" maskUnits="userSpaceOnUse" x="0" y="0" width="97" height="103">
<rect x="0.512695" width="96" height="103" rx="20" fill="#5236FF"/>
</mask>
<g mask="url(#mask0_1_481)">
<path d="M77.6223 69.6848C77.6223 76.4862 65.9805 81.9999 51.6195 81.9999C37.2586 81.9999 25.6167 76.4862 25.6167 69.6848C25.6167 62.8833 37.2586 57.3697 51.6195 57.3697C65.9805 57.3697 77.6223 62.8833 77.6223 69.6848Z" fill="#22137B"/>
<path d="M77.6223 68.9604C77.6223 75.7618 65.9805 81.2755 51.6195 81.2755C37.2586 81.2755 25.6167 75.7618 25.6167 68.9604C25.6167 62.1589 37.2586 56.6453 51.6195 56.6453C65.9805 56.6453 77.6223 62.1589 77.6223 68.9604Z" fill="#22137B"/>
<path d="M77.6223 68.236C77.6223 75.0374 65.9805 80.5511 51.6195 80.5511C37.2586 80.5511 25.6167 75.0374 25.6167 68.236C25.6167 61.4345 37.2586 55.9208 51.6195 55.9208C65.9805 55.9208 77.6223 61.4345 77.6223 68.236Z" fill="#22137B"/>
<path d="M77.6223 67.5115C77.6223 74.313 65.9805 79.8267 51.6195 79.8267C37.2586 79.8267 25.6167 74.313 25.6167 67.5115C25.6167 60.7101 37.2586 55.1964 51.6195 55.1964C65.9805 55.1964 77.6223 60.7101 77.6223 67.5115Z" fill="#22137B"/>
<path d="M77.6223 66.7871C77.6223 73.5886 65.9805 79.1022 51.6195 79.1022C37.2586 79.1022 25.6167 73.5886 25.6167 66.7871C25.6167 59.9857 37.2586 54.472 51.6195 54.472C65.9805 54.472 77.6223 59.9857 77.6223 66.7871Z" fill="#22137B"/>
<path d="M77.6223 66.0627C77.6223 72.8642 65.9805 78.3778 51.6195 78.3778C37.2586 78.3778 25.6167 72.8642 25.6167 66.0627C25.6167 59.2612 37.2586 53.7476 51.6195 53.7476C65.9805 53.7476 77.6223 59.2612 77.6223 66.0627Z" fill="#22137B"/>
<path d="M77.6223 65.3383C77.6223 72.1397 65.9805 77.6534 51.6195 77.6534C37.2586 77.6534 25.6167 72.1397 25.6167 65.3383C25.6167 58.5368 37.2586 53.0232 51.6195 53.0232C65.9805 53.0232 77.6223 58.5368 77.6223 65.3383Z" fill="#22137B"/>
<path d="M77.6223 64.6139C77.6223 71.4153 65.9805 76.929 51.6195 76.929C37.2586 76.929 25.6167 71.4153 25.6167 64.6139C25.6167 57.8124 37.2586 52.2987 51.6195 52.2987C65.9805 52.2987 77.6223 57.8124 77.6223 64.6139Z" fill="#22137B"/>
<path d="M77.6223 63.8894C77.6223 70.6909 65.9805 76.2046 51.6195 76.2046C37.2586 76.2046 25.6167 70.6909 25.6167 63.8894C25.6167 57.088 37.2586 51.5743 51.6195 51.5743C65.9805 51.5743 77.6223 57.088 77.6223 63.8894Z" fill="#22137B"/>
<path d="M77.6223 63.165C77.6223 69.9665 65.9805 75.4801 51.6195 75.4801C37.2586 75.4801 25.6167 69.9665 25.6167 63.165C25.6167 56.3636 37.2586 50.8499 51.6195 50.8499C65.9805 50.8499 77.6223 56.3636 77.6223 63.165Z" fill="#22137B"/>
<path d="M77.6223 62.4406C77.6223 69.2421 65.9805 74.7557 51.6195 74.7557C37.2586 74.7557 25.6167 69.2421 25.6167 62.4406C25.6167 55.6392 37.2586 50.1255 51.6195 50.1255C65.9805 50.1255 77.6223 55.6392 77.6223 62.4406Z" fill="#22137B"/>
<path d="M77.6223 67.6848C77.6223 74.4862 65.9805 79.9999 51.6195 79.9999C37.2586 79.9999 25.6167 74.4862 25.6167 67.6848C25.6167 60.8833 37.2586 55.3697 51.6195 55.3697C65.9805 55.3697 77.6223 60.8833 77.6223 67.6848Z" fill="#836FFD"/>
<path d="M77.6223 66.9604C77.6223 73.7618 65.9805 79.2755 51.6195 79.2755C37.2586 79.2755 25.6167 73.7618 25.6167 66.9604C25.6167 60.1589 37.2586 54.6453 51.6195 54.6453C65.9805 54.6453 77.6223 60.1589 77.6223 66.9604Z" fill="#836FFD"/>
<path d="M77.6223 66.236C77.6223 73.0374 65.9805 78.5511 51.6195 78.5511C37.2586 78.5511 25.6167 73.0374 25.6167 66.236C25.6167 59.4345 37.2586 53.9208 51.6195 53.9208C65.9805 53.9208 77.6223 59.4345 77.6223 66.236Z" fill="#836FFD"/>
<path d="M77.6223 65.5115C77.6223 72.313 65.9805 77.8267 51.6195 77.8267C37.2586 77.8267 25.6167 72.313 25.6167 65.5115C25.6167 58.7101 37.2586 53.1964 51.6195 53.1964C65.9805 53.1964 77.6223 58.7101 77.6223 65.5115Z" fill="#836FFD"/>
<path d="M77.6223 64.7871C77.6223 71.5886 65.9805 77.1022 51.6195 77.1022C37.2586 77.1022 25.6167 71.5886 25.6167 64.7871C25.6167 57.9857 37.2586 52.472 51.6195 52.472C65.9805 52.472 77.6223 57.9857 77.6223 64.7871Z" fill="#836FFD"/>
<path d="M77.6223 64.0627C77.6223 70.8642 65.9805 76.3778 51.6195 76.3778C37.2586 76.3778 25.6167 70.8642 25.6167 64.0627C25.6167 57.2612 37.2586 51.7476 51.6195 51.7476C65.9805 51.7476 77.6223 57.2612 77.6223 64.0627Z" fill="#836FFD"/>
<path d="M77.6223 63.3383C77.6223 70.1397 65.9805 75.6534 51.6195 75.6534C37.2586 75.6534 25.6167 70.1397 25.6167 63.3383C25.6167 56.5368 37.2586 51.0232 51.6195 51.0232C65.9805 51.0232 77.6223 56.5368 77.6223 63.3383Z" fill="#836FFD"/>
<path d="M77.6223 62.6139C77.6223 69.4153 65.9805 74.929 51.6195 74.929C37.2586 74.929 25.6167 69.4153 25.6167 62.6139C25.6167 55.8124 37.2586 50.2987 51.6195 50.2987C65.9805 50.2987 77.6223 55.8124 77.6223 62.6139Z" fill="#836FFD"/>
<path d="M77.6223 61.8894C77.6223 68.6909 65.9805 74.2046 51.6195 74.2046C37.2586 74.2046 25.6167 68.6909 25.6167 61.8894C25.6167 55.088 37.2586 49.5743 51.6195 49.5743C65.9805 49.5743 77.6223 55.088 77.6223 61.8894Z" fill="#836FFD"/>
<path d="M77.6223 61.165C77.6223 67.9665 65.9805 73.4801 51.6195 73.4801C37.2586 73.4801 25.6167 67.9665 25.6167 61.165C25.6167 54.3636 37.2586 48.8499 51.6195 48.8499C65.9805 48.8499 77.6223 54.3636 77.6223 61.165Z" fill="#836FFD"/>
<path d="M77.6223 60.4406C77.6223 67.2421 65.9805 72.7557 51.6195 72.7557C37.2586 72.7557 25.6167 67.2421 25.6167 60.4406C25.6167 53.6392 37.2586 48.1255 51.6195 48.1255C65.9805 48.1255 77.6223 53.6392 77.6223 60.4406Z" fill="#836FFD"/>
<ellipse cx="51.6195" cy="59.8687" rx="26.0028" ry="11.7432" fill="white"/>
<path d="M57.4913 61.99C57.4913 62.6131 57.0934 63.1401 56.2978 63.5709C55.5163 63.994 54.4578 64.2671 53.1222 64.3902V65.0479C53.1222 65.2556 53.0014 65.421 52.7599 65.5441C52.5325 65.6748 52.2271 65.7402 51.8434 65.7402C51.474 65.7402 51.1685 65.6748 50.927 65.5441C50.6855 65.421 50.5647 65.2556 50.5647 65.0479V64.4248C49.7832 64.3863 49.0231 64.2978 48.2842 64.1594C47.5596 64.0209 46.9202 63.844 46.3661 63.6286C46.1388 63.5517 45.9754 63.467 45.8759 63.3747C45.7907 63.2747 45.748 63.1516 45.748 63.0055C45.748 62.8132 45.8546 62.6439 46.0677 62.4977C46.2951 62.3516 46.5508 62.2785 46.835 62.2785C47.1049 62.2785 47.4388 62.34 47.8367 62.4631C48.4903 62.6708 49.1083 62.8247 49.6909 62.9247C50.2876 63.017 50.9057 63.0632 51.5451 63.0632C52.3976 63.0632 53.0511 62.9785 53.5058 62.8093C53.9605 62.6324 54.1878 62.3862 54.1878 62.0708C54.1878 61.8785 54.0528 61.7208 53.7829 61.5977C53.5271 61.4746 53.2074 61.3785 52.8238 61.3092C52.4402 61.24 51.8861 61.1515 51.1614 61.0438C50.11 60.8977 49.2433 60.7515 48.5613 60.6053C47.8793 60.4592 47.2897 60.2284 46.7924 59.913C46.3093 59.5976 46.0677 59.1745 46.0677 58.6437C46.0677 58.0206 46.4727 57.486 47.2825 57.0398C48.1066 56.5936 49.1794 56.309 50.5007 56.1859V55.5282C50.5007 55.3205 50.6215 55.1551 50.8631 55.032C51.1046 54.9012 51.4101 54.8358 51.7795 54.8358C52.1631 54.8358 52.4686 54.9012 52.6959 55.032C52.9375 55.1551 53.0582 55.3205 53.0582 55.5282V56.1628C54.337 56.2551 55.5376 56.5167 56.6601 56.9475C56.8732 57.0244 57.0224 57.1129 57.1076 57.2129C57.2071 57.3129 57.2568 57.4321 57.2568 57.5706C57.2568 57.7629 57.1432 57.9321 56.9158 58.0783C56.7027 58.2245 56.454 58.2975 56.1699 58.2975C56.0136 58.2975 55.8644 58.286 55.7223 58.2629C55.5944 58.2398 55.4097 58.1898 55.1682 58.1129C54.5856 57.9129 54.0599 57.7629 53.5911 57.6629C53.1364 57.5629 52.5752 57.5129 51.9074 57.5129C51.1401 57.5129 50.5221 57.6052 50.0532 57.7898C49.5985 57.9744 49.3712 58.2206 49.3712 58.5283C49.3712 58.7437 49.5062 58.9206 49.7761 59.0591C50.0461 59.1899 50.3871 59.2937 50.7991 59.3707C51.2112 59.4476 51.7866 59.5361 52.5254 59.6361C53.5626 59.7745 54.408 59.9168 55.0616 60.063C55.7294 60.2015 56.2978 60.4284 56.7666 60.7438C57.2497 61.0515 57.4913 61.4669 57.4913 61.99Z" fill="#5236FF"/>
<path d="M77.6223 54.2639C77.6223 61.0653 65.9805 66.579 51.6195 66.579C37.2586 66.579 25.6167 61.0653 25.6167 54.2639C25.6167 47.4624 37.2586 41.9488 51.6195 41.9488C65.9805 41.9488 77.6223 47.4624 77.6223 54.2639Z" fill="#836FFD"/>
<path d="M77.6223 53.5395C77.6223 60.3409 65.9805 65.8546 51.6195 65.8546C37.2586 65.8546 25.6167 60.3409 25.6167 53.5395C25.6167 46.738 37.2586 41.2244 51.6195 41.2244C65.9805 41.2244 77.6223 46.738 77.6223 53.5395Z" fill="#836FFD"/>
<path d="M77.6223 52.8151C77.6223 59.6165 65.9805 65.1302 51.6195 65.1302C37.2586 65.1302 25.6167 59.6165 25.6167 52.8151C25.6167 46.0136 37.2586 40.4999 51.6195 40.4999C65.9805 40.4999 77.6223 46.0136 77.6223 52.8151Z" fill="#836FFD"/>
<path d="M77.6223 52.0906C77.6223 58.8921 65.9805 64.4058 51.6195 64.4058C37.2586 64.4058 25.6167 58.8921 25.6167 52.0906C25.6167 45.2892 37.2586 39.7755 51.6195 39.7755C65.9805 39.7755 77.6223 45.2892 77.6223 52.0906Z" fill="#836FFD"/>
<path d="M77.6223 51.3662C77.6223 58.1677 65.9805 63.6813 51.6195 63.6813C37.2586 63.6813 25.6167 58.1677 25.6167 51.3662C25.6167 44.5648 37.2586 39.0511 51.6195 39.0511C65.9805 39.0511 77.6223 44.5648 77.6223 51.3662Z" fill="#836FFD"/>
<path d="M77.6223 50.6418C77.6223 57.4433 65.9805 62.9569 51.6195 62.9569C37.2586 62.9569 25.6167 57.4433 25.6167 50.6418C25.6167 43.8404 37.2586 38.3267 51.6195 38.3267C65.9805 38.3267 77.6223 43.8404 77.6223 50.6418Z" fill="#836FFD"/>
<path d="M77.6223 49.9174C77.6223 56.7188 65.9805 62.2325 51.6195 62.2325C37.2586 62.2325 25.6167 56.7188 25.6167 49.9174C25.6167 43.1159 37.2586 37.6023 51.6195 37.6023C65.9805 37.6023 77.6223 43.1159 77.6223 49.9174Z" fill="#836FFD"/>
<path d="M77.6223 49.193C77.6223 55.9944 65.9805 61.5081 51.6195 61.5081C37.2586 61.5081 25.6167 55.9944 25.6167 49.193C25.6167 42.3915 37.2586 36.8778 51.6195 36.8778C65.9805 36.8778 77.6223 42.3915 77.6223 49.193Z" fill="#836FFD"/>
<path d="M77.6223 48.4685C77.6223 55.27 65.9805 60.7837 51.6195 60.7837C37.2586 60.7837 25.6167 55.27 25.6167 48.4685C25.6167 41.6671 37.2586 36.1534 51.6195 36.1534C65.9805 36.1534 77.6223 41.6671 77.6223 48.4685Z" fill="#836FFD"/>
<path d="M77.6223 47.7441C77.6223 54.5456 65.9805 60.0592 51.6195 60.0592C37.2586 60.0592 25.6167 54.5456 25.6167 47.7441C25.6167 40.9427 37.2586 35.429 51.6195 35.429C65.9805 35.429 77.6223 40.9427 77.6223 47.7441Z" fill="#836FFD"/>
<path d="M77.6223 47.0197C77.6223 53.8212 65.9805 59.3348 51.6195 59.3348C37.2586 59.3348 25.6167 53.8212 25.6167 47.0197C25.6167 40.2183 37.2586 34.7046 51.6195 34.7046C65.9805 34.7046 77.6223 40.2183 77.6223 47.0197Z" fill="#836FFD"/>
<ellipse cx="51.6195" cy="46.4478" rx="26.0028" ry="11.7432" fill="white"/>
<path d="M57.4913 48.569C57.4913 49.1921 57.0934 49.7191 56.2978 50.1499C55.5163 50.573 54.4578 50.8461 53.1222 50.9691V51.6269C53.1222 51.8346 53.0014 52 52.7599 52.123C52.5325 52.2538 52.2271 52.3192 51.8434 52.3192C51.474 52.3192 51.1685 52.2538 50.927 52.123C50.6855 52 50.5647 51.8346 50.5647 51.6269V51.0038C49.7832 50.9653 49.0231 50.8768 48.2842 50.7384C47.5596 50.5999 46.9202 50.423 46.3661 50.2076C46.1388 50.1306 45.9754 50.046 45.8759 49.9537C45.7907 49.8537 45.748 49.7306 45.748 49.5844C45.748 49.3921 45.8546 49.2229 46.0677 49.0767C46.2951 48.9306 46.5508 48.8575 46.835 48.8575C47.1049 48.8575 47.4388 48.919 47.8367 49.0421C48.4903 49.2498 49.1083 49.4037 49.6909 49.5037C50.2876 49.596 50.9057 49.6421 51.5451 49.6421C52.3976 49.6421 53.0511 49.5575 53.5058 49.3883C53.9605 49.2114 54.1878 48.9652 54.1878 48.6498C54.1878 48.4575 54.0528 48.2998 53.7829 48.1767C53.5271 48.0536 53.2074 47.9574 52.8238 47.8882C52.4402 47.819 51.8861 47.7305 51.1614 47.6228C50.11 47.4766 49.2433 47.3305 48.5613 47.1843C47.8793 47.0382 47.2897 46.8074 46.7924 46.492C46.3093 46.1766 46.0677 45.7535 46.0677 45.2227C46.0677 44.5996 46.4727 44.0649 47.2825 43.6188C48.1066 43.1726 49.1794 42.8879 50.5007 42.7649V42.1071C50.5007 41.8994 50.6215 41.734 50.8631 41.611C51.1046 41.4802 51.4101 41.4148 51.7795 41.4148C52.1631 41.4148 52.4686 41.4802 52.6959 41.611C52.9375 41.734 53.0582 41.8994 53.0582 42.1071V42.7418C54.337 42.8341 55.5376 43.0957 56.6601 43.5264C56.8732 43.6034 57.0224 43.6918 57.1076 43.7918C57.2071 43.8918 57.2568 44.0111 57.2568 44.1496C57.2568 44.3419 57.1432 44.5111 56.9158 44.6573C56.7027 44.8034 56.454 44.8765 56.1699 44.8765C56.0136 44.8765 55.8644 44.865 55.7223 44.8419C55.5944 44.8188 55.4097 44.7688 55.1682 44.6919C54.5856 44.4919 54.0599 44.3419 53.5911 44.2419C53.1364 44.1419 52.5752 44.0919 51.9074 44.0919C51.1401 44.0919 50.5221 44.1842 50.0532 44.3688C49.5985 44.5534 49.3712 44.7996 49.3712 45.1073C49.3712 45.3227 49.5062 45.4996 49.7761 45.6381C50.0461 45.7689 50.3871 45.8727 50.7991 45.9496C51.2112 46.0266 51.7866 46.115 52.5254 46.215C53.5626 46.3535 54.408 46.4958 55.0616 46.642C55.7294 46.7805 56.2978 47.0074 56.7666 47.3228C57.2497 47.6305 57.4913 48.0459 57.4913 48.569Z" fill="#5236FF"/>
<path d="M71.7508 38.3269C71.7508 45.1283 60.1089 50.642 45.7479 50.642C31.387 50.642 19.7451 45.1283 19.7451 38.3269C19.7451 31.5254 31.387 26.0118 45.7479 26.0118C60.1089 26.0118 71.7508 31.5254 71.7508 38.3269Z" fill="#836FFD"/>
<path d="M71.7508 37.6025C71.7508 44.4039 60.1089 49.9176 45.7479 49.9176C31.387 49.9176 19.7451 44.4039 19.7451 37.6025C19.7451 30.801 31.387 25.2873 45.7479 25.2873C60.1089 25.2873 71.7508 30.801 71.7508 37.6025Z" fill="#836FFD"/>
<path d="M71.7508 36.878C71.7508 43.6795 60.1089 49.1932 45.7479 49.1932C31.387 49.1932 19.7451 43.6795 19.7451 36.878C19.7451 30.0766 31.387 24.5629 45.7479 24.5629C60.1089 24.5629 71.7508 30.0766 71.7508 36.878Z" fill="#836FFD"/>
<path d="M71.7508 36.1536C71.7508 42.9551 60.1089 48.4687 45.7479 48.4687C31.387 48.4687 19.7451 42.9551 19.7451 36.1536C19.7451 29.3522 31.387 23.8385 45.7479 23.8385C60.1089 23.8385 71.7508 29.3522 71.7508 36.1536Z" fill="#836FFD"/>
<path d="M71.7508 35.4292C71.7508 42.2307 60.1089 47.7443 45.7479 47.7443C31.387 47.7443 19.7451 42.2307 19.7451 35.4292C19.7451 28.6278 31.387 23.1141 45.7479 23.1141C60.1089 23.1141 71.7508 28.6278 71.7508 35.4292Z" fill="#836FFD"/>
<path d="M71.7508 34.7048C71.7508 41.5062 60.1089 47.0199 45.7479 47.0199C31.387 47.0199 19.7451 41.5062 19.7451 34.7048C19.7451 27.9033 31.387 22.3897 45.7479 22.3897C60.1089 22.3897 71.7508 27.9033 71.7508 34.7048Z" fill="#836FFD"/>
<path d="M71.7508 33.9804C71.7508 40.7818 60.1089 46.2955 45.7479 46.2955C31.387 46.2955 19.7451 40.7818 19.7451 33.9804C19.7451 27.1789 31.387 21.6653 45.7479 21.6653C60.1089 21.6653 71.7508 27.1789 71.7508 33.9804Z" fill="#836FFD"/>
<path d="M71.7508 33.256C71.7508 40.0574 60.1089 45.5711 45.7479 45.5711C31.387 45.5711 19.7451 40.0574 19.7451 33.256C19.7451 26.4545 31.387 20.9408 45.7479 20.9408C60.1089 20.9408 71.7508 26.4545 71.7508 33.256Z" fill="#836FFD"/>
<path d="M71.7508 32.5315C71.7508 39.333 60.1089 44.8467 45.7479 44.8467C31.387 44.8467 19.7451 39.333 19.7451 32.5315C19.7451 25.7301 31.387 20.2164 45.7479 20.2164C60.1089 20.2164 71.7508 25.7301 71.7508 32.5315Z" fill="#836FFD"/>
<path d="M71.7508 31.8071C71.7508 38.6086 60.1089 44.1222 45.7479 44.1222C31.387 44.1222 19.7451 38.6086 19.7451 31.8071C19.7451 25.0057 31.387 19.492 45.7479 19.492C60.1089 19.492 71.7508 25.0057 71.7508 31.8071Z" fill="#836FFD"/>
<path d="M71.7508 31.0827C71.7508 37.8841 60.1089 43.3978 45.7479 43.3978C31.387 43.3978 19.7451 37.8841 19.7451 31.0827C19.7451 24.2812 31.387 18.7676 45.7479 18.7676C60.1089 18.7676 71.7508 24.2812 71.7508 31.0827Z" fill="#836FFD"/>
<ellipse cx="45.7479" cy="30.5108" rx="26.0028" ry="11.7432" fill="white"/>
<path d="M51.6197 32.632C51.6197 33.2551 51.2218 33.7821 50.4262 34.2128C49.6447 34.6359 48.5862 34.909 47.2506 35.0321V35.6898C47.2506 35.8976 47.1298 36.0629 46.8883 36.186C46.661 36.3168 46.3555 36.3822 45.9719 36.3822C45.6024 36.3822 45.297 36.3168 45.0554 36.186C44.8139 36.0629 44.6931 35.8976 44.6931 35.6898V35.0667C43.9116 35.0283 43.1515 34.9398 42.4127 34.8013C41.688 34.6629 41.0487 34.4859 40.4945 34.2705C40.2672 34.1936 40.1038 34.109 40.0043 34.0167C39.9191 33.9167 39.8765 33.7936 39.8765 33.6474C39.8765 33.4551 39.983 33.2859 40.1962 33.1397C40.4235 32.9936 40.6792 32.9205 40.9634 32.9205C41.2334 32.9205 41.5673 32.982 41.9651 33.1051C42.6187 33.3128 43.2367 33.4667 43.8193 33.5667C44.416 33.659 45.0341 33.7051 45.6735 33.7051C46.526 33.7051 47.1796 33.6205 47.6342 33.4513C48.0889 33.2743 48.3162 33.0282 48.3162 32.7128C48.3162 32.5205 48.1813 32.3628 47.9113 32.2397C47.6555 32.1166 47.3359 32.0204 46.9522 31.9512C46.5686 31.882 46.0145 31.7935 45.2899 31.6858C44.2384 31.5396 43.3717 31.3935 42.6897 31.2473C42.0077 31.1012 41.4181 30.8704 40.9208 30.555C40.4377 30.2396 40.1962 29.8165 40.1962 29.2857C40.1962 28.6626 40.6011 28.1279 41.411 27.6817C42.2351 27.2356 43.3078 26.9509 44.6292 26.8279V26.1701C44.6292 25.9624 44.7499 25.797 44.9915 25.6739C45.233 25.5432 45.5385 25.4778 45.9079 25.4778C46.2915 25.4778 46.597 25.5432 46.8244 25.6739C47.0659 25.797 47.1867 25.9624 47.1867 26.1701V26.8048C48.4654 26.8971 49.666 27.1586 50.7885 27.5894C51.0016 27.6664 51.1508 27.7548 51.236 27.8548C51.3355 27.9548 51.3852 28.0741 51.3852 28.2125C51.3852 28.4049 51.2716 28.5741 51.0442 28.7203C50.8311 28.8664 50.5825 28.9395 50.2983 28.9395C50.142 28.9395 49.9928 28.928 49.8507 28.9049C49.7229 28.8818 49.5381 28.8318 49.2966 28.7549C48.7141 28.5549 48.1884 28.4049 47.7195 28.3049C47.2648 28.2048 46.7036 28.1548 46.0358 28.1548C45.2685 28.1548 44.6505 28.2472 44.1816 28.4318C43.7269 28.6164 43.4996 28.8626 43.4996 29.1703C43.4996 29.3857 43.6346 29.5626 43.9045 29.7011C44.1745 29.8319 44.5155 29.9357 44.9275 30.0126C45.3396 30.0896 45.915 30.178 46.6539 30.278C47.6911 30.4165 48.5365 30.5588 49.19 30.705C49.8578 30.8434 50.4262 31.0704 50.895 31.3858C51.3781 31.6935 51.6197 32.1089 51.6197 32.632Z" fill="#5236FF"/>
</g>
</svg>
