<svg width="625" height="286" viewBox="0 0 625 286" fill="none" xmlns="http://www.w3.org/2000/svg">
<rect x="100.266" y="47.5601" width="430.632" height="188.992" stroke="#C6C6C6" stroke-width="2" stroke-linejoin="round" stroke-dasharray="3 3"/>
<rect x="0.271973" width="447.398" height="202.564" fill="#F1F1F1"/>
<rect x="11.2285" y="29.5632" width="425.484" height="168.621" fill="white"/>
<rect x="45.9204" y="51.4624" width="352.44" height="122.633" rx="8" fill="#F1F1F1"/>
<rect x="407.495" y="13.1392" width="27.3917" height="4.37976" rx="2.18988" fill="#C4C4C4"/>
<rect x="72.3296" y="90.2698" width="131.533" height="4.75104" rx="2.37552" fill="white"/>
<rect x="72.3296" y="137.78" width="131.533" height="4.75104" rx="2.37552" fill="white"/>
<rect x="230.8" y="90.2698" width="131.533" height="4.75104" rx="2.37552" fill="#5236FF"/>
<rect x="72.3296" y="82.6682" width="131.533" height="4.75104" rx="2.37552" fill="white"/>
<rect x="72.3296" y="130.178" width="131.533" height="4.75104" rx="2.37552" fill="#FFB422"/>
<rect x="230.8" y="82.6682" width="131.533" height="4.75104" rx="2.37552" fill="white"/>
<rect x="72.3296" y="97.8716" width="131.533" height="4.75104" rx="2.37552" fill="white"/>
<rect x="72.3296" y="145.382" width="131.533" height="4.75104" rx="2.37552" fill="#FFB422"/>
<rect x="230.8" y="97.8716" width="131.533" height="4.75104" rx="2.37552" fill="white"/>
<rect x="72.3296" y="105.473" width="74.4824" height="4.75104" rx="2.37552" fill="#5236FF"/>
<rect x="72.3296" y="152.983" width="74.4824" height="4.75104" rx="2.37552" fill="white"/>
<rect x="230.8" y="105.473" width="74.4824" height="4.75104" rx="2.37552" fill="white"/>
<ellipse cx="15.7938" cy="14.7815" rx="4.56529" ry="2.73735" fill="#C4C4C4"/>
<ellipse cx="28.5707" cy="14.7815" rx="4.56529" ry="2.73735" fill="#C4C4C4"/>
<ellipse cx="41.3617" cy="14.7815" rx="4.56529" ry="2.73735" fill="#C4C4C4"/>
<g filter="url(#filter0_d_1_354)">
<rect x="267.255" y="119.726" width="331.692" height="134.678" rx="15" fill="white"/>
</g>
<line x1="336.641" y1="187.65" x2="535.067" y2="187.65" stroke="#F1F1F1"/>
<line x1="333.812" y1="210.634" x2="532.239" y2="210.634" stroke="#F1F1F1"/>
<line x1="333.812" y1="176.158" x2="532.239" y2="176.158" stroke="#F1F1F1"/>
<line x1="333.812" y1="199.142" x2="532.239" y2="199.142" stroke="#F1F1F1"/>
<line x1="333.812" y1="164.666" x2="532.239" y2="164.666" stroke="#F1F1F1"/>
<line x1="348.487" y1="153.675" x2="348.487" y2="217.598" stroke="#F1F1F1"/>
<line x1="416.511" y1="153.675" x2="416.511" y2="217.598" stroke="#F1F1F1"/>
<line x1="484.549" y1="153.675" x2="484.549" y2="217.598" stroke="#F1F1F1"/>
<line x1="371.161" y1="152.957" x2="371.161" y2="216.879" stroke="#F1F1F1"/>
<line x1="439.197" y1="152.957" x2="439.197" y2="216.879" stroke="#F1F1F1"/>
<line x1="507.224" y1="152.957" x2="507.224" y2="216.879" stroke="#F1F1F1"/>
<line x1="393.836" y1="152.957" x2="393.836" y2="216.879" stroke="#F1F1F1"/>
<line x1="461.872" y1="152.957" x2="461.872" y2="216.879" stroke="#F1F1F1"/>
<line x1="529.901" y1="152.957" x2="529.901" y2="216.879" stroke="#F1F1F1"/>
<rect x="308.46" y="154.884" width="9.5084" height="2.85062" rx="1.42531" fill="#E0DBFF"/>
<rect x="310.037" y="211.896" width="9.5084" height="2.85062" rx="1.42531" fill="#E0DBFF"/>
<rect x="308.46" y="183.39" width="9.5084" height="2.85062" rx="1.42531" fill="#E0DBFF"/>
<rect x="329.052" y="234.702" width="5.70124" height="4.7542" rx="1.5" transform="rotate(-90 329.052 234.702)" fill="#E0DBFF"/>
<rect x="376.601" y="234.702" width="5.70124" height="4.7542" rx="1.5" transform="rotate(-90 376.601 234.702)" fill="#E0DBFF"/>
<rect x="424.143" y="234.702" width="5.70124" height="4.7542" rx="1.5" transform="rotate(-90 424.143 234.702)" fill="#E0DBFF"/>
<rect x="471.682" y="234.702" width="5.70124" height="4.7542" rx="1.5" transform="rotate(-90 471.682 234.702)" fill="#E0DBFF"/>
<rect x="519.23" y="234.702" width="5.70124" height="4.7542" rx="1.5" transform="rotate(-90 519.23 234.702)" fill="#E0DBFF"/>
<rect x="308.46" y="169.137" width="9.5084" height="2.85062" rx="1.42531" fill="#E0DBFF"/>
<rect x="310.037" y="226.15" width="9.5084" height="2.85062" rx="1.42531" fill="#E0DBFF"/>
<rect x="308.46" y="197.644" width="9.5084" height="2.85062" rx="1.42531" fill="#E0DBFF"/>
<rect x="352.829" y="234.702" width="5.70124" height="4.7542" rx="1.5" transform="rotate(-90 352.829 234.702)" fill="#E0DBFF"/>
<rect x="400.366" y="234.702" width="5.70124" height="4.7542" rx="1.5" transform="rotate(-90 400.366 234.702)" fill="#E0DBFF"/>
<rect x="447.915" y="234.702" width="5.70124" height="4.7542" rx="1.5" transform="rotate(-90 447.915 234.702)" fill="#E0DBFF"/>
<rect x="495.456" y="234.702" width="5.70124" height="4.7542" rx="1.5" transform="rotate(-90 495.456 234.702)" fill="#E0DBFF"/>
<rect x="542.997" y="234.702" width="5.70124" height="4.7542" rx="1.5" transform="rotate(-90 542.997 234.702)" fill="#E0DBFF"/>
<path d="M439.746 194.318C383.515 182.217 346.464 205.992 333.546 220.766C332.995 221.396 333.458 222.349 334.295 222.349H535.656C536.208 222.349 536.656 221.901 536.656 221.349V153.556C536.656 152.45 534.989 152.091 534.494 153.08C523.941 174.191 493.705 205.929 439.746 194.318Z" fill="#FFB422"/>
<path d="M316.38 147.282V231.851H553.298" stroke="#E0DBFF" stroke-width="3"/>
<defs>
<filter id="filter0_d_1_354" x="251.255" y="108.726" width="373.692" height="176.678" filterUnits="userSpaceOnUse" color-interpolation-filters="sRGB">
<feFlood flood-opacity="0" result="BackgroundImageFix"/>
<feColorMatrix in="SourceAlpha" type="matrix" values="0 0 0 0 0 0 0 0 0 0 0 0 0 0 0 0 0 0 127 0" result="hardAlpha"/>
<feOffset dx="5" dy="10"/>
<feGaussianBlur stdDeviation="10.5"/>
<feComposite in2="hardAlpha" operator="out"/>
<feColorMatrix type="matrix" values="0 0 0 0 0.700272 0 0 0 0 0.700272 0 0 0 0 0.700272 0 0 0 0.25 0"/>
<feBlend mode="normal" in2="BackgroundImageFix" result="effect1_dropShadow_1_354"/>
<feBlend mode="normal" in="SourceGraphic" in2="effect1_dropShadow_1_354" result="shape"/>
</filter>
</defs>
</svg>
