<svg width="19" height="24" viewBox="0 0 19 24" fill="none" xmlns="http://www.w3.org/2000/svg">
<path d="M17.4767 17.8913L13.8345 22.2097C13.3678 22.7627 12.7392 23.0714 12.0803 23.0714H2.48433C1.11255 23.0714 0 21.7468 0 20.1135V2.95787C0 1.32461 1.11255 0 2.48433 0H15.7226C17.0943 0 18.2069 1.32461 18.2069 2.95787V15.795C18.209 16.5821 17.9455 17.3357 17.4767 17.8913Z" fill="#5236FF"/>
<path d="M15.2071 12.7071C15.5976 12.3166 15.5976 11.6834 15.2071 11.2929L8.84315 4.92893C8.45262 4.53841 7.81946 4.53841 7.42893 4.92893C7.03841 5.31946 7.03841 5.95262 7.42893 6.34315L13.0858 12L7.42893 17.6569C7.03841 18.0474 7.03841 18.6805 7.42893 19.0711C7.81946 19.4616 8.45262 19.4616 8.84315 19.0711L15.2071 12.7071ZM0.5 13L14.5 13V11L0.5 11L0.5 13Z" fill="white"/>
</svg>
