<svg width="242" height="291" viewBox="0 0 242 291" fill="none" xmlns="http://www.w3.org/2000/svg">
<path d="M120.934 21.5659V79.3153C158.976 79.3153 189.844 113.714 189.844 156.172C189.844 198.601 159.002 233.029 120.934 233.029C82.8659 233.029 52.0235 198.63 52.0235 156.172C52.0235 139.855 56.6193 124.763 64.3809 112.319H64.3554L17.6067 86.5767C6.577 106.88 0.245117 130.686 0.245117 156.144C0.245117 230.466 54.2703 290.75 120.934 290.75C187.572 290.75 241.622 230.495 241.622 156.144C241.597 81.8212 187.572 21.5659 120.934 21.5659Z" fill="#29F0A8"/>
<path d="M7.31689 65.7608L54.0656 91.4747H54.0911C66.5506 71.5414 87.2058 58.4709 110.644 58.4709V0.75C66.8314 0.75 28.4572 26.8056 7.31689 65.7608Z" fill="#FFC700"/>
<path d="M241.597 156.144C241.597 131.626 235.699 108.646 225.41 88.855H154.176C175.418 101.954 189.844 127.155 189.844 156.144C189.844 198.573 159.001 233.001 120.934 233.001V290.75C187.571 290.75 241.597 230.495 241.597 156.144Z" fill="#704DFF"/>
<path d="M120.934 21.5659V79.3153C158.976 79.3153 189.844 113.714 189.844 156.172H241.622C241.597 81.8212 187.571 21.5659 120.934 21.5659Z" fill="#FF77E9"/>
</svg>
