<svg width="3" height="13" viewBox="0 0 3 13" fill="none" xmlns="http://www.w3.org/2000/svg">
<path d="M2.50427 2.20038C2.50427 2.7257 2.07238 3.15759 1.54706 3.15759C1.02173 3.15759 0.589844 2.7257 0.589844 2.20038C0.589844 1.67505 1.02173 1.24316 1.54706 1.24316C2.07238 1.24316 2.50427 1.67505 2.50427 2.20038ZM0.589844 6.57202C0.589844 6.0467 1.02173 5.61481 1.54706 5.61481C2.07238 5.61481 2.50427 6.0467 2.50427 6.57202C2.50427 7.09735 2.07238 7.52924 1.54706 7.52924C1.02173 7.52924 0.589844 7.09735 0.589844 6.57202ZM0.589844 10.9437C0.589844 10.4183 1.02173 9.98645 1.54706 9.98645C2.07238 9.98645 2.50427 10.4183 2.50427 10.9437C2.50427 11.469 2.07238 11.9009 1.54706 11.9009C1.02173 11.9009 0.589844 11.469 0.589844 10.9437Z" stroke="#94ADC2"/>
</svg>
