<svg width="3" height="10" viewBox="0 0 3 10" fill="none" xmlns="http://www.w3.org/2000/svg">
<path d="M2.457 1.72948C2.457 2.04925 2.19329 2.31296 1.87352 2.31296C1.55375 2.31296 1.29004 2.04925 1.29004 1.72948C1.29004 1.4097 1.55375 1.146 1.87352 1.146C2.19329 1.146 2.457 1.4097 2.457 1.72948ZM1.29004 4.97992C1.29004 4.66014 1.55375 4.39644 1.87352 4.39644C2.19329 4.39644 2.457 4.66014 2.457 4.97992C2.457 5.29969 2.19329 5.5634 1.87352 5.5634C1.55375 5.5634 1.29004 5.29969 1.29004 4.97992ZM1.29004 8.23036C1.29004 7.91058 1.55375 7.64688 1.87352 7.64688C2.19329 7.64688 2.457 7.91058 2.457 8.23036C2.457 8.55013 2.19329 8.81384 1.87352 8.81384C1.55375 8.81384 1.29004 8.55013 1.29004 8.23036Z" stroke="#94ADC2"/>
</svg>
