<svg width="32" height="30" viewBox="0 0 32 30" fill="none" xmlns="http://www.w3.org/2000/svg">
<path d="M16.1532 10.4167C17.574 10.4167 18.7365 9.32921 18.7365 8.00004C18.7365 6.67087 17.574 5.58337 16.1532 5.58337C14.7323 5.58337 13.5698 6.67087 13.5698 8.00004C13.5698 9.32921 14.7323 10.4167 16.1532 10.4167ZM16.1532 12.8334C14.7323 12.8334 13.5698 13.9209 13.5698 15.25C13.5698 16.5792 14.7323 17.6667 16.1532 17.6667C17.574 17.6667 18.7365 16.5792 18.7365 15.25C18.7365 13.9209 17.574 12.8334 16.1532 12.8334ZM16.1532 20.0834C14.7323 20.0834 13.5698 21.1709 13.5698 22.5C13.5698 23.8292 14.7323 24.9167 16.1532 24.9167C17.574 24.9167 18.7365 23.8292 18.7365 22.5C18.7365 21.1709 17.574 20.0834 16.1532 20.0834Z" fill="#BDBDBD"/>
</svg>
