<svg width="323" height="128" viewBox="0 0 323 128" fill="none" xmlns="http://www.w3.org/2000/svg">
<path d="M22.2283 111.353C16.3994 107.379 16.1345 108.174 13.7499 108.174C2.31746 109.126 13.0907 126.995 24.5627 127.005C119.931 127.086 271.24 127.214 311.303 127.243C316.773 127.247 320.976 122.581 320.353 117.146C320.298 116.664 320.231 116.417 320.101 115.95C319.751 114.7 319.131 112.538 318.44 110.293C316.321 105.206 312.965 103.758 311.552 103.669C310.492 103.493 307.895 102.981 305.988 102.345C302.808 101.073 299.541 95.6326 298.304 93.0715L295.655 86.4478C293.888 82.4735 290.091 73.9952 289.031 71.8756C287.998 70.1538 287.412 69.4391 286.62 68.9315C285.644 68.3061 284.402 67.9075 283.375 68.4468C280.216 70.1069 276.941 77.5615 275.519 81.6787L270.75 94.6611L267.305 104.729C265.892 107.997 262.854 114.797 262.006 115.857C260.947 117.182 260.417 116.917 259.092 115.592C256.124 112.837 253.616 113.208 252.733 113.737C252.516 113.846 252.005 114.082 251.249 114.395C250.129 114.859 248.955 115.62 247.8 115.252C246.279 114.768 244.895 112.835 244.255 111.618C243.107 109.675 240.175 105.047 237.631 102.08C234.452 98.3704 232.332 98.9003 231.007 98.9003C228.676 98.9003 225.09 102.08 223.589 103.669C223.236 104.111 221.628 105.577 218.025 107.909C214.422 110.24 209.988 106.937 208.222 104.994L202.658 97.3106C202.04 96.6041 200.326 94.8731 198.419 93.6014C194.964 91.4419 191.684 94.2107 189.442 96.7432C188.508 97.7979 187.911 99.2526 186.646 99.8736C185.701 100.338 184.674 100.185 184.112 99.9601C183.582 99.7835 181.939 98.4764 179.607 94.6611C176.852 89.5741 174.044 79.4708 172.984 75.055L166.89 48.0303L161.326 22.8602C160.884 20.6523 159.524 14.7528 157.617 8.81796C156.604 5.66861 155.783 3.95174 155.052 2.97813C153.76 1.25964 151.015 1.44771 149.735 3.17446C147.72 5.89219 146.123 11.0872 145.429 14.1169C143.31 23.1252 138.805 42.3074 137.746 46.9705C136.898 51.4216 133.86 59.9529 132.447 63.6622C132.358 63.9272 131.546 65.4639 129.002 69.4911C125.293 74.2601 123.703 71.8756 120.789 69.4911C115.702 64.616 110.898 69.2261 109.131 72.1406L104.362 81.1488C104.085 81.5362 103.469 82.3744 102.63 83.4679C101.509 84.929 100.216 86.3917 98.4369 86.8672C95.1644 87.7418 92.6413 85.5582 91.6447 84.0632L83.1663 71.3457C82.6668 70.7213 81.5491 69.3904 80.1878 67.915C79.023 66.6524 77.687 65.4242 75.9979 65.1107C74.7441 64.8779 73.697 65.1065 72.7998 65.454C71.9173 65.7957 71.0271 66.1592 70.2803 66.7405C65.7813 70.2426 60.7316 83.9362 58.7911 88.3024C57.5434 91.1097 55.741 94.3761 54.4184 96.6449C53.6416 97.9773 52.6878 99.196 51.6444 100.332C51.2152 100.799 50.6879 101.376 50.0478 102.08C47.9282 104.411 45.1021 103.934 43.954 103.404C43.4732 103.13 42.0416 102.321 39.6342 100.978C38.106 100.125 36.3468 99.2189 34.7596 99.9559C30.9681 101.716 28.5302 109.117 26.9973 111.088C24.8777 113.472 24.0829 112.413 22.2283 111.353Z" fill="url(#paint0_linear_1_138)"/>
<path d="M1.76249 127.233C1.60892 127.233 1.43828 127.2 1.28471 127.134C0.636291 126.835 0.329145 126.021 0.602164 125.307C5.32879 112.601 9.91891 106.422 14.6455 106.422C17.8535 106.422 19.9865 108.033 21.7099 109.329C23.1432 110.408 23.9794 111.006 24.8837 110.774C26.4365 110.392 27.3409 108.382 28.3988 106.073C29.5421 103.549 30.8389 100.692 33.4326 99.1474C36.5553 97.3038 39.0466 98.865 41.2307 100.244C42.6299 101.124 43.9609 101.971 45.5137 102.071C50.974 102.469 55.2058 92.9356 59.284 83.701C63.7035 73.7024 67.8841 64.2685 74.4707 63.737C80.0505 63.2719 83.7874 69.5169 87.439 75.5294C90.8176 81.11 94.0085 86.3917 97.9332 85.4117C100.902 84.6643 102.967 80.8442 105.151 76.7917C107.864 71.7425 110.68 66.5273 115.884 66.2117C118.853 66.0124 120.594 67.6235 122.01 68.9024C123.119 69.9155 123.853 70.5301 124.825 70.5301H124.843C130.815 70.5301 135.832 48.9882 139.859 31.6816C144.517 11.5515 147.401 0.157752 152.196 0.074707C152.213 0.074707 152.23 0.074707 152.247 0.074707C157.895 0.074707 161.564 16.3847 167.553 45.1681C172.211 67.6235 178.61 98.3667 185.094 98.3667C185.117 98.3667 185.14 98.3667 185.163 98.3659C186.275 98.3269 187.273 97.1908 188.439 95.892C190.213 93.8989 192.38 91.391 196.169 91.5737C200.827 91.7564 203.421 95.7259 205.912 99.5626C208.147 102.984 210.246 106.206 213.693 107.053C217.481 107.983 220.194 105.276 223.078 102.403C226.064 99.4297 229.46 96.0415 234.101 97.8186C238.043 99.3301 240.756 103.748 243.162 107.651C245.79 111.92 247.53 114.461 249.39 113.88C249.783 113.747 250.192 113.498 250.67 113.215C251.83 112.501 253.281 111.637 255.414 111.986C257.427 112.318 258.587 113.531 259.441 114.411C259.731 114.71 260.089 115.075 260.243 115.142C261.966 115.69 266.744 101.921 269.047 95.2775C274.986 78.137 279.303 66.8595 284.644 66.8595C284.695 66.8595 284.763 66.8595 284.814 66.8595C288.944 67.0422 291.879 74.1674 295.274 82.4221C298.772 90.9259 302.748 100.543 307.765 101.489C307.901 101.506 308.106 101.522 308.379 101.556C309.932 101.689 313.157 101.954 315.409 103.947C318.481 106.671 322.149 112.667 322.149 125.855C322.149 126.635 321.586 127.25 320.887 127.25C320.187 127.25 319.624 126.619 319.624 125.855C319.624 113.797 316.484 108.482 313.839 106.14C312.184 104.678 309.488 104.462 308.191 104.363C307.816 104.329 307.526 104.313 307.338 104.263C300.991 103.084 296.912 93.1681 292.971 83.6013C290.309 77.1238 287.271 69.7827 284.712 69.6664C284.695 69.6664 284.661 69.6664 284.644 69.6664C280.634 69.6664 275.31 85.0463 271.419 96.2906C266.198 111.355 263.297 119.161 259.475 117.832C258.775 117.583 258.229 117.019 257.7 116.487C256.983 115.756 256.267 114.992 255.021 114.793C253.741 114.577 252.871 115.109 251.881 115.707C251.318 116.039 250.738 116.404 250.09 116.603C246.319 117.799 243.776 113.664 241.08 109.262C238.913 105.725 236.456 101.705 233.299 100.509C230.057 99.2802 227.617 101.705 224.801 104.529C221.73 107.585 218.232 111.056 213.181 109.827C208.796 108.747 206.185 104.761 203.881 101.24C201.544 97.6359 199.513 94.5467 196.1 94.4138C193.507 94.3308 191.903 96.0581 190.247 97.9017C188.814 99.5128 187.347 101.174 185.18 101.207C177.296 101.29 172.058 79.3827 165.096 45.8325C161.325 27.7121 156.188 2.91485 152.264 2.91485H152.247C149.141 2.96467 145.182 20.0055 142.282 32.429C137.384 53.4892 132.743 73.3868 124.808 73.3868C124.791 73.3868 124.791 73.3868 124.774 73.3868C122.863 73.3702 121.532 72.1744 120.372 71.128C119.075 69.9487 117.949 68.9522 115.987 69.0685C112.147 69.301 109.792 73.6692 107.301 78.2865C104.946 82.6712 102.506 87.1889 98.4792 88.202C92.8653 89.5972 89.043 83.2692 85.3232 77.1571C82.0811 71.809 78.7537 66.328 74.6413 66.5937C69.5052 67.009 65.4611 76.1439 61.5535 84.9965C57.0999 95.0449 52.5098 105.475 45.343 104.927C43.2271 104.778 41.5037 103.682 39.9851 102.735C37.7838 101.34 36.4529 100.609 34.6271 101.672C32.7501 102.785 31.6921 105.11 30.6683 107.369C29.4397 110.076 28.177 112.866 25.4468 113.547C23.4504 114.046 21.8464 112.85 20.2936 111.687C18.7067 110.491 17.0686 109.262 14.6455 109.262C12.6491 109.262 8.48557 111.488 2.93988 126.419C2.73512 126.901 2.25734 127.233 1.76249 127.233Z" fill="#FFD546"/>
<defs>
<linearGradient id="paint0_linear_1_138" x1="161.194" y1="1.39941" x2="161.194" y2="127.25" gradientUnits="userSpaceOnUse">
<stop stop-color="#FFF0BE"/>
<stop offset="1" stop-color="#FFF8DE" stop-opacity="0"/>
</linearGradient>
</defs>
</svg>
