<svg width="323" height="102" viewBox="0 0 323 102" fill="none" xmlns="http://www.w3.org/2000/svg">
<path d="M22.1971 29.6431C16.9379 33.2772 10.7318 56.1869 6.13917 77.3987C3.51243 89.5306 12.9189 100.739 25.3319 100.759L318.925 101.246C320.141 101.248 321.045 100.017 320.488 98.935C320.358 98.6824 320.281 98.453 320.227 98.1742C319.888 96.4355 318.756 94.5095 315.69 90.118C314.708 88.7106 313.558 87.4068 312.142 86.4369C305.142 81.6428 299.049 82.7401 296.714 84.0283C296.029 84.4394 294.302 85.4565 291.978 86.7827C290.551 87.5971 289.009 88.3885 287.375 88.2168C284.074 87.8698 281.872 84.9564 281.082 83.2335C280.287 81.8204 277.903 76.7157 274.724 67.6015C272.721 60.4268 269.712 60.3339 267.66 61.7394C266.58 62.4795 265.75 63.5321 264.755 64.384L264.534 64.5738C262.187 66.5799 258.899 68.3047 256.727 66.1103C254.662 64.0227 253.294 60.365 252.733 58.0634C250.878 51.9696 246.586 38.4572 244.254 33.1583C241.67 28.8506 238.327 29.7373 236.217 31.2635C235.324 31.9101 234.683 32.8271 234.084 33.7536C231.288 38.0825 226.621 45.2636 224.913 47.7304C223.006 50.4859 220.762 50.4682 219.879 50.1149C219.272 49.8452 217.893 49.0916 216.332 47.9013C215.311 47.1232 214.31 46.2128 213.04 46.0243C212.007 45.8711 211.041 46.0549 210.333 46.3084C209.789 46.5027 209.328 46.8614 208.893 47.2406C208.488 47.594 207.986 48.0307 207.45 48.495C206.259 49.5274 204.508 50.548 203.252 49.5958C202.864 49.3017 202.435 48.9332 202.144 48.5427C200.59 46.4544 198.199 39.2544 197.094 35.5428C196.779 34.5357 195.971 32.3263 194.765 29.7587C193.747 27.5918 191.91 24.8048 189.791 25.9184C186.01 27.9054 183.623 38.9906 182.787 45.6108C181.727 53.206 179.554 69.1382 179.342 72.1056C179.103 75.4574 177.998 78.8091 177.005 82.1609C176.794 82.8735 176.341 84.0416 175.792 84.542C174.049 86.1298 172.509 82.8429 171.144 80.9205C169.474 78.5697 167.534 76.7721 166.086 75.6645C165.239 75.0164 164.273 74.5601 163.29 74.147C159.855 72.7041 154.426 70.2225 152.053 68.3964C150.172 66.9501 148.185 66.8196 146.748 67.079C145.651 67.277 144.732 67.9753 143.723 68.448C142.617 68.9656 141.071 69.4561 139.335 69.4561C135.52 69.4561 132.623 63.9805 131.652 61.2428C130.15 58.24 126.882 51.5986 125.823 49.0551C124.724 46.4181 123.443 44.1456 121.224 41.4817C120.261 40.3264 119.146 39.2236 117.715 38.7599C114.945 37.8622 112.812 39.3459 111.074 41.097C109.727 42.4541 108.315 44.1666 106.408 44.022C104.892 43.9069 103.682 42.7588 102.602 41.1954C101.97 40.2807 101.343 39.3549 100.832 38.3674C98.6815 34.209 95.6809 24.2018 94.2938 19.116C93.6333 17.2996 91.6606 12.2104 88.8087 5.66701C88.4057 4.74229 87.9617 3.81808 87.2979 3.05853C83.092 -1.75413 78.6199 4.846 76.8073 9.04797C72.5681 19.0277 63.7188 39.623 62.2351 42.1665C60.3805 45.3459 59.3207 45.6108 56.1413 45.6108C53.331 45.7865 48.871 41.4862 46.0181 38.1984L45.9666 38.1391C44.9345 36.9492 43.8848 35.7391 42.3596 35.3496C40.9914 35.0003 39.8386 36.1703 38.6837 36.9828C36.4746 38.5372 34.7999 37.6611 34.1506 36.8675C32.4729 35.2543 29.2863 32.3774 26.8647 30.6967C25.4547 29.7182 23.609 28.6674 22.1971 29.6431Z" fill="url(#paint0_linear_1_135)"/>
<path d="M320.865 101.25C320.319 101.25 319.824 100.911 319.654 100.379C315.252 86.3633 306.652 84.2662 301.926 84.2662C298.702 84.2662 296.023 85.8021 293.651 87.1461C291.382 88.4457 289.249 89.6568 286.98 89.3318C280.65 88.4162 277.835 80.2048 275.327 72.9533C273.484 67.5923 271.59 62.054 268.963 62.1426C268.075 62.1721 266.983 63.5161 265.943 64.801C264.39 66.7061 262.633 68.8771 260.005 68.8771C254.375 68.8771 251.679 59.4842 248.829 49.5449C246.424 41.1414 243.677 31.6008 239.701 31.3498C236.613 31.1135 233.661 36.4154 230.966 41.0528C227.536 46.9308 223.987 53.0007 219.107 51.3466C217.674 50.8593 216.633 49.9288 215.712 49.1166C214.518 48.0532 213.528 47.2114 211.993 47.2852C210.355 47.3739 209.314 48.3634 208.222 49.4119C207.147 50.4457 205.919 51.6272 204.161 51.3909C200.954 50.9627 199.264 45.7345 197.115 39.1181C195.477 34.0377 193.224 27.0816 190.921 27.0816C186.485 27.0816 183.994 46.6502 182.356 59.5876C180.104 77.2805 178.807 86.4962 174.422 86.0236C172.904 85.8464 172.085 84.5172 171.146 82.9517C170.088 81.209 168.638 78.8165 165.618 76.7341C164.492 75.9661 163.963 75.7741 163.008 75.4492C162.069 75.1243 160.807 74.696 158.503 73.5293C155.722 72.1263 153.982 70.9595 152.702 70.1177C151.081 69.0396 150.279 68.4931 148.778 68.3012C146.816 68.0501 145.758 68.6704 144.512 69.394C143.523 69.97 142.397 70.6346 140.827 70.7823C134.292 71.3878 130.505 62.7776 126.853 54.4481C123.697 47.2852 120.438 39.8566 116.121 39.8566C114.108 39.8566 113.016 40.979 111.771 42.2786C110.44 43.6521 108.955 45.2176 106.311 45.2176C100.834 45.2176 97.6603 34.9829 93.9749 23.1383C91.1255 13.9522 87.5767 2.52119 83.8401 2.52119C80.6495 2.52119 77.766 9.77264 74.0977 18.9588C71.5384 25.3684 68.3649 33.3583 64.0482 41.4368C62.3591 44.6121 60.414 46.34 58.0936 46.7093C55.3466 47.1671 52.2072 45.6607 48.2488 41.9685C47.6175 41.3777 46.9862 40.6541 46.3549 39.9009C44.8193 38.0991 43.3349 36.3859 41.6287 36.5336C40.8098 36.5927 40.315 37.021 39.6666 37.5526C38.9159 38.1729 37.9775 38.9409 36.5272 39.0147C33.9338 39.0738 31.8181 36.8142 29.7707 34.5694C27.8768 32.5017 25.9147 30.3603 23.9184 30.3603C18.9363 30.3603 12.6916 51.2433 3.03454 100.202C2.88099 100.911 2.21557 101.354 1.53309 101.221C0.850611 101.088 0.389938 100.438 0.526434 99.7586C12.5039 39.0147 17.8102 27.8939 23.9013 27.8939C27.0237 27.8939 29.4806 30.567 31.6304 32.93C33.2854 34.7466 35.0769 36.6074 36.3907 36.5484C36.9708 36.5188 37.3462 36.2382 38.0116 35.677C38.7965 35.0272 39.786 34.2001 41.4069 34.082C44.461 33.8605 46.4914 36.2235 48.2829 38.3354C48.846 39 49.409 39.6646 49.9721 40.1962C53.265 43.2534 55.7731 44.5973 57.6499 44.2872C59.1343 44.0361 60.4822 42.7365 61.7789 40.3144C66.0274 32.354 69.1838 24.438 71.709 18.0727C76.0598 7.21765 78.9262 0.0400391 83.8401 0.0400391C89.4364 0.0400391 92.6611 10.4077 96.3977 22.4147C99.2129 31.4679 102.711 42.7365 106.311 42.7365C107.778 42.7365 108.648 41.9242 109.928 40.5802C111.31 39.1477 113.016 37.3754 116.121 37.3754C122.093 37.3754 125.522 45.1881 129.174 53.4586C132.484 60.9611 135.879 68.7147 140.588 68.3012C141.578 68.2125 142.346 67.7695 143.216 67.2526C144.581 66.4551 146.27 65.4656 149.102 65.8348C151.201 66.1006 152.429 66.9277 154.118 68.0649C155.398 68.9214 157.002 69.9996 159.646 71.3288C161.796 72.4069 162.939 72.8056 163.844 73.1158C164.85 73.4702 165.669 73.7361 167.068 74.7108C170.532 77.0886 172.221 79.8651 173.33 81.6964C174.139 83.0157 175.431 83.1111 175.966 81.6591C177.545 77.3748 178.897 66.8071 179.848 59.2922C182.51 38.3354 184.728 24.6005 190.938 24.6005C195.101 24.6005 197.251 31.2907 199.554 38.3797C200.885 42.5002 202.899 48.7178 204.519 48.9393C205.031 48.9984 205.594 48.4963 206.465 47.6397C207.659 46.5025 209.28 44.937 211.873 44.8041C214.501 44.6712 216.053 46.0447 217.435 47.2705C218.254 47.9941 219.022 48.6735 219.961 48.9984C222.878 49.9879 225.881 44.8041 228.799 39.8123C232.023 34.2887 235.419 28.588 239.889 28.8686C245.656 29.2231 248.386 38.7637 251.286 48.8655C253.641 57.0769 256.303 66.3812 260.022 66.3812C261.421 66.3812 262.718 64.7862 263.98 63.2355C265.38 61.5075 266.83 59.7205 268.877 59.6467C273.296 59.4842 275.395 65.3474 277.749 72.1558C280.019 78.7279 282.578 86.1713 287.372 86.8655C288.772 87.0722 290.444 86.1123 292.406 84.9898C294.914 83.5573 298.036 81.7702 301.943 81.7702C306.311 81.7702 317.026 83.513 322.094 99.6404C322.298 100.305 321.923 100.999 321.258 101.206C321.121 101.235 320.985 101.25 320.865 101.25Z" fill="#5236FF"/>
<defs>
<linearGradient id="paint0_linear_1_135" x1="161.458" y1="1.37305" x2="161.458" y2="101.25" gradientUnits="userSpaceOnUse">
<stop stop-color="#D1EEFF"/>
<stop offset="1" stop-color="#D3EFFF" stop-opacity="0"/>
</linearGradient>
</defs>
</svg>
