<svg width="22" height="23" viewBox="0 0 22 23" fill="none" xmlns="http://www.w3.org/2000/svg">
<g clip-path="url(#clip0_2_43)">
<path d="M13.7955 5.08341C14.6908 5.2581 15.5137 5.69598 16.1587 6.34102C16.8038 6.98606 17.2416 7.80891 17.4163 8.70425L13.7955 5.08341ZM13.7955 1.41675C15.6557 1.6234 17.3903 2.45641 18.7145 3.77901C20.0388 5.1016 20.874 6.83517 21.083 8.69508L13.7955 1.41675ZM20.1663 16.0101V18.7601C20.1674 19.0154 20.1151 19.2681 20.0128 19.502C19.9105 19.7359 19.7605 19.9459 19.5724 20.1185C19.3843 20.291 19.1622 20.4224 18.9203 20.5042C18.6785 20.586 18.4222 20.6164 18.168 20.5934C15.3473 20.2869 12.6377 19.323 10.2572 17.7792C8.04233 16.3719 6.16455 14.4941 4.75715 12.2792C3.20797 9.88785 2.24388 7.16516 1.94299 4.33175C1.92008 4.07826 1.95021 3.82278 2.03145 3.58157C2.11269 3.34036 2.24326 3.11871 2.41486 2.93073C2.58645 2.74275 2.79531 2.59256 3.02813 2.48973C3.26095 2.38689 3.51263 2.33365 3.76715 2.33341H6.51715C6.96202 2.32904 7.3933 2.48657 7.7306 2.77665C8.06791 3.06674 8.28822 3.46957 8.35049 3.91008C8.46656 4.79014 8.68182 5.65425 8.99215 6.48592C9.11549 6.81401 9.14218 7.17059 9.06907 7.51339C8.99596 7.85619 8.82611 8.17085 8.57965 8.42008L7.41549 9.58425C8.72041 11.8792 10.6206 13.7793 12.9155 15.0842L14.0797 13.9201C14.3289 13.6736 14.6435 13.5038 14.9863 13.4307C15.3291 13.3576 15.6857 13.3843 16.0138 13.5076C16.8455 13.8179 17.7096 14.0332 18.5897 14.1492C19.0349 14.2121 19.4416 14.4364 19.7323 14.7795C20.023 15.1225 20.1775 15.5605 20.1663 16.0101Z" stroke="#5236FF" stroke-width="2" stroke-linecap="round" stroke-linejoin="round"/>
</g>
<defs>
<clipPath id="clip0_2_43">
<rect width="22" height="22" fill="white" transform="translate(0 0.500061)"/>
</clipPath>
</defs>
</svg>
